<?xml version="1.0" encoding="UTF-8"?>
<svg xmlns="http://www.w3.org/2000/svg" version="1.1" viewBox="0 0 1344 768">
  <!-- Generator: Adobe Illustrator 29.8.1, SVG Export Plug-In . SVG Version: 2.1.1 Build 2)  -->
  <defs>
    <style>
      .st0 {
        fill: #fff;
        font-family: Arial-BoldMT, Arial;
        font-size: 176px;
        font-weight: 700;
        letter-spacing: -.06em;
      }

      .st1 {
        fill: #c60c0c;
      }

      .st2 {
        fill: #e14342;
      }

      .st3 {
        fill: #f19d99;
      }
    </style>
  </defs>
  <g id="Layer_1">
    <g>
      <path class="st1" d="M696,500c-3.85-13.64,10.17-17.18,15.42-7.92,1.48,2.62,1.06,5.98,2.17,7.83,1.95,3.27,13.96,19.65,16.73,18.99,4.23-6.81,9.72-16.25,12.44-23.65,1.63-4.43-1.56-12.58,6.81-14.17,6.32-1.21,12.2-.49,14.94,5.91,1.82,4.26.28,7.15,1.39,9.53.41.87,12.23,13.63,13.13,13.96,5.33,1.96,9.04-1.27,15.02,3.98,6.48,5.69,3.39,11.03,5.48,16.52.55,1.46,20.55,21.43,21.95,22.1,3.85,1.86,11.85-3.38,17.04-.06,2.17-.34,24.9-33.65,25.32-35.8,1.19-6.07-8.42-11.38-.25-25.14,12.87-21.66,45.56-5.96,39.66,18.7,7.46,3.62,20.48,22.26,26.81,24.73,3.21,1.26,10.34-2.92,14.57-3.39,26.89-3.02,41.58,18.91,36.89,43.85l51.04,50.07,3.31-1.61-2.06-35.72c-4.88-4.35-11.4-5.9-16.18-10.82-12.48-12.84-12.07-36.34,2.42-47.6l-26.05-66.27,23.73.27,22.76,56.73c12.61,2.58,25.16,5.6,29.51,18.99.45,1.39-1.09,2.43,2,2,2.59,6.77,2.77,15.92,1,23-.9.16-2.26-.23-3,0-.36-2.73.52-6.48,0-9-1.91-9.31-24.7,10.47-28.47,14.03-5.05,4.76-6.82,5.45-1.53,9.97,4.49,3.84,5.35,2.94,11,3,1.52.02,3.64.23,5,0l-4.11,5.48,2.04,35.93,7.09.16,48.56-80.55-4.58-18.02-1-2c-.06-1.33.08-2.68,0-4l3,2c.05.65-.09,1.36,0,2,.98,6.88,6.33,19.21,15.56,11.06,3.5-3.09,15.32-37.44,14.26-41.32-1.61-5.92-16.66-6.86-18.83-.74-2.68,1.26-6.57,5.21-8,8l-1-2c2.08-3.27,1.98-3.97,5-7l1-1c16.27-14.9,38.4-16.75,54.63-.63,12.31,12.22,11.41,25.49,10.89,41.62l64.93,59.08c3.08,1.52,20.59-4.74,27.07-5.04,68.72-3.15,92.9,88.29,32.48,119.97l-3,2c-2.27-.1-3.96,1.35-6,2-1.53-1.55-6.01-.2-5,2-.84.19-2.05-.11-3,0-1.65-1.77-2.34-1.31-2,1-1.33.06-2.67-.08-4,0-1.62.1-11.32.09-13,0-1.32-.07-2.68.1-4,0,.34-2.31-.35-2.77-2-1-.98-.09-2.04.14-3,0,.35-2.3-.38-2.8-2-1-.59-.14-1.43.15-2,0,.65-3.05-5.62-3.16-8-4-1.85-.65-3.21-1.13-5-2-.51-4.53,3.13-.03,5.62.02,1.4.03,2.25-1.02,2.38-1.02.67-.01,1.34.03,2,0-.56,3.01,1.53,1.95,3.45,2,7.61.2,21.09-1.2,19.11-11.98l-35.81-63.76c-9.55-4.1-9.37-.19-13.74,4.73-8.55,9.63-8.51,14.61-8,27.55.07,1.92-1.03,4.01,2,3.45,0,.66-.03,1.34,0,2,.18,4.1.97,1.79,1,2,.1.63-.14,1.44,0,2,.56,2.19.1,8.5,5,9,1.62,3.4,3.44,6.63,5,10,.18.38.69.69,1,1,1.72,1.43,1.86,2.88,2,3,.26.22,1.31.53,2,1,.19,1.17-1.71,1.27-2,1-.23-.21.23-1.81,0-2-.35-.29-2.18-.16-2,1-1.27-1.14-1.17-1.16-2-2l-3-2c-.66-.74-.75-1.71-1-2l-1-1c-1.2-1.46-1.29-2-2-3l-1-1c-1.28-1.99-1.85-2.69-3-5l-1-1c-.13-.27.12-.72,0-1,.05-2.36.67-3.47-2-3-.25-.74.22-2.16,0-3-.58-2.24-.36-5.76-3-5-.07-.65.03-1.34,0-2-.02-.55,3.1-3.57-1-3,0-.67,0-1.33,0-2,0-.71,3.09-3.53-1-3-.21-4.57-.17-9.42,0-14,4.08.52,1.02-2.22,1-3-.03-.94-.14-2.12,0-3,2.12.25,2.25.12,2-2,.72-3.07.72-6.87,2-10,2.67.47,2.05-.64,2-3,.12-.28-.12-.72,0-1l1-1c1.62-3.57,5.47-7.19,3.06-10.55l-59.09-57c-8.52,3.58-16.35,2.75-24.97,3.55h-2c-1.63.17-3.35-.12-5,0-1.81-.36-2.3.21-2,2l-48.81,81.76c17.56,33.43-5.53,69.44-44.19,59.24v-3c.59.11,1.36-.02,2,0,9.61.31,11.63-1.78,7.51-11.01-1.69-3.78-16.56-30.28-18.43-31.57-5.31-3.68-6.99-.9-10.09,2.58-.26.29-2.92,4.72-3,5-1.12,3.74-2.16,8.41,0,12,.03.33-.04.67,0,1,.07.55.99.93,1,1,.21,1.16-.31,3.15,0,4,.26.7.94.89,1,1,.4.77.33,2.02,1,3l-1,1c-10.08-15.35-7.25-25.42-1.47-41.95l-48.56-48.57c-31.87,12.7-60.43-14.32-45.05-46.36-6.97-6.83-21.68-17.7-26.92-25.12-.2-.28.13-1.43,0-2,1.93-1.12,5.04-7.23,5-10-.01-1,.04-2,0-3-1.21-.99-32.38,9.65-21,14-.13.29.14.76,0,1-.23.41.23,1.62,0,2-5.18,8.71-23.81,28.97-26.46,37.05-1.77,5.39,1.79,10.1-1.54,18.95-3.02.98-1.61-2.59-2.07-2.88-1.98-1.28-17.59,5.05-19.44,6.87-5.04,4.99,5.33,4.62,5.51,8.01-11.03.91-21.74-7.04-22.03-18.56-.11-4.22,2.76-9.06,1.54-12.4-1.79-4.91-20.79-17.34-22.71-24.82-5.07.26-.4,3.54-9.36,2.82-6.67-.54-11.95-6.02-12.39-12.68-.28-4.13,2.3-6.29,1.56-9.38-1.23-5.14-13.16-19.17-20.12-13.99-.84.63-9.2,17.73-9.32,18.77-.39,3.39,1.75,4.83,1.9,7.75.65,12.02-20.81,19.03-23.01,3.9-.51-3.5,1.2-6.73.55-9.43-.18-.76-7.43-11.39-8.6-12.98.32-1.89-.1-2.35-2-2-1.02-1.32-2.29-2.45-3-4l3-6v-1.99c-2.37-.09-3.45-.67-3,1.99-3.37-.02-6.14.82-6,5-1.78-.76-1.58-.35-3-2-.41-.47,1.15-2.67-2-2ZM941,591c4.85,3.85,10.46,3.05,16,2,1.27-.24,2.78-.59,4-1,3.47-1.17,1.83-1.91,2-2,6.48-3.4,5.11-.73,9-8,.95-1.77,4.47-1.92,3-9-.28-1.34.03-2.24-1.65-2.86-5.19-1.91-27.31,11.96-33.75,13.95-3.26,2.31-.94,5.04,1.4,6.9Z"/>
      <path class="st1" d="M99,62c.42,3.15-1.08,1.94-3,1.51-7.06-1.57-25.42-3.36-27.58,6.45-1.01,4.6,17.7,36.61,21.4,42.73,2.63,4.36,13.25,23.22,16.12,24.88,6.98,4.02,14.65-1.64,17.06-8.56.1-.3-.1-.7,0-1,3.35-.06,4.74-9.99,4.98-12.52.23-2.31,1.84-16.28-2.98-14.48-.4-3.11-1.21-5.06-2-8-.01-.05.42.24,0-1-.24-.7-1.52-1.56-1-3v-2c-.11-.21-1.9.17-2,0-.15-.25.15-.77,0-1-.77-1.16-.82-1.51-2-3-.89-1.12-1.75-2.71-2-3-.58-2.51-4.8-4.98,0-5,.79.95,1.86,1.26,3,3,0,.84.69,1.38,1,2,1.61,3.25,4.29,4.36,5,8-.31,2.01-.02,2.3,2,2,11.24,23.22,5.96,45.37-4.9,67.32l61.37,58.65c9.65-5.96,20.64-2.54,31.04-4.96l50.1-83c-5.4-14.96-9.64-23.88-2.63-39.53,8.28-18.5,29.43-24.7,48.02-19.48-4.71,2.21-10.18,1.1-12.82,6.74v3.52c6.6,6.23,14.72,31.01,20.73,35.32,5.65,4.05,9.43.06,11.09-4.58.1-.27-.07-.66,0-1,3.91.4,1.96-2.83,2-4,.04-1.28.13-2.74,0-4-.16-1.57.29-3.62,0-5l2-2c3.04,14.2.84,18.33-1.49,31.96l48.49,49.04,2,1c-7.63,2.65-13.15,9.95-13,18,.09,4.86,2.24,7.74,8.24,6.81,1.66-.26,29.51-12.19,30.75-13.32,5.39-4.87.2-6.13,0-6.49-1.98-3.81-.94-4.46-7-6l2-3c.98.23,1.55.86,2,1l1,1c.93.36,3.34-.39,5.01.46,17.91,9.2,19.55,27.89,14.46,45.49l27.53,26.05c-4.43,3.58-11.91,14.58-.76,12.81,1.78-.28,16.98-7.01,17.86-8.27,2.1-6.53-4.45-2.37-1.11-8.54,4.37-8.07,23.92-30.73,25.49-37.05,1.16-4.69-3.57-8.6.51-17.95,3.59-.88,1.36,3.46,1.99,4.01,2.02,1.76,21.87-6,21.99-9.48.02-.53-1.52-3.5-1.99-4.52.63.09,1.41-.13,2,0,8.72,1.94,13.62,7.29,14.05,16.47.19,4-2.05,9.44-1.55,11.47,1.21,5.02,19.35,18.28,22.5,24.06-1.93,1.1-6.34,8.88-2.47,10,4.53-3.39,15.54-2.7,14.47-10,1.99.67,3.3.07,5.55,1.95,1.51,1.27,1.54,3.62,2.45,5.05-.32,1.89.1,2.35,2,2,.07.65-.11,1.37,0,2v5c-.31,4.56-2.61.92,0,8,1.32,3.58,3.71,10.53,8,9,.41.61.61,1.38,1,2l1,1c-.51.2-2.9,3.74-3,5-.08,1.04-.06,2.07.47,3l2.56.57c1.69-1.52,6.86-2.74,7.98-4.08,1.63-1.95.62-3.72.99-4.49,1.72-3.61,9.54-18.46,9.83-20.77.54-4.25-2.4-4.1-.83-10.23,6.41,3.27,9.58-5.23,14-8,12.11,5.73,5.63,8.22,7.18,16.29.65,3.37,12.37,15.01,13.82,19.71-.33.15-2.73,6.26-1.99,6.99,1.46,1.44,9.17-2.6,9.99-4.99,15.24,7.52-4.77,25.47-12.25,10.75-1.06-2.08-.28-4.96-1.31-6.69-1.18-1.99-12.5-17.89-13.4-18.59-1.85-1.43-2.92-2.04-5.36-1.33-1.19.44-10.53,20.08-11.43,22.61-2.28,6.43,1.08,18.8-14.03,15.61-11.53-2.43-6.22-11.7-8.13-15.63-.41-.84-11.7-13.39-12.54-13.78-6.12-2.83-12,1.56-18.09-5.91-4.84-5.94-2.06-9.95-3.99-15.01-.55-1.46-20.55-21.42-21.95-22.1-3.64-1.76-11.86,3.1-17,.03-2.23.4-25.71,34.82-26.15,37.04-.28,1.44,3.94,9.07,3.69,14.52-1.01,22.09-32.53,27.79-40.94,6.86-2.34-5.82-.98-13.5-2.22-15.72-.9-1.61-25.24-24.49-26.96-25.16-2.84-1.11-9.54,2.89-13.58,3.4-26.12,3.31-43.76-17.57-36.85-42.85l-49.76-50.8-4.78-.24,1.2,38.31c26.33,12.7,32.71,36.88,13.79,60.1l20.01,48.6h-24l-15.5-41c-17.63-4.35-25.53-5.81-32.5-23,.24-2.12.12-2.24-2-2v-3l1.01-12c7.82,16.55,22.94-9.48,33.56-12.93,4.54-6.52-1.35-4.74-1.57-5.07-.9-1.33,1.27-.69-2-3-.25-.18-.21-3.29-4.59-2.92-2.39-.72-1,1.4-1.41,1.92-1.2,0-3.01-.22-4,0l-1-2c.32-.2.71-.68,1-1,3.88-4.18.98-3.95,1-6,.07-6.6.29-13.41,0-20-.18-3.96.8-7.15-1-11-1.97-4.23-2.97-3.32-7.83-2.82l-49.64,81.87c-1.77,3.67,1.06,6.82,2.47,9.94l1,1c.22.56.69,1.22,1,2l-3,1c-.31-.74-1.43-2.38-2-3-6.5-7.08-9.07-1.51-12.04,4.46-1.61,3.24-11.84,30.15-11.95,32.16-.21,3.53.7,4.64,3.99,5.38,2.6.59,7-.31,10,0,1.49.15,2.49.44,3,2-.67.4-1.39.64-2,1-.39.22-.68.69-1,1-10.55,12.47-38.08,7.21-48.98-3.52-13.07-12.87-10.85-25.24-10.95-42.06l-64.51-58.48c-3.52-1.74-22.83,5.03-30.05,5.13C-34.85,183.47.1,13.86,99,62Z"/>
      <path class="st1" d="M516,175c.32.67.69,1.32,1,2-2.37-.35-4.64,1.22-4-2,.93-.09,2.06-.07,3,0Z"/>
      <path class="st1" d="M1271,55c1.53-.05,6.36-.04,8,0,1.98.05,4.03-.15,6,0-.34,2.31.35,2.77,2,1,.97.1,2.12-.17,3,0-.35,2.29.39,2.8,2,1,.58.15,1.46-.16,2,0-.24,2.12-.12,2.24,2,2,.73.26,2.34-.27,3,0-.26,2.11-.1,2.26,2,2,78.78,36.95,25.47,149.76-54.96,114.45l-66.57,61.6c9.27,37.48-27.42,66.14-60.47,42.95l14.27-1.24c3.76-1.88,4.08-4.21,3.68-8.17-.25-2.46-11.91-36.31-13.41-37.63-4.5-3.96-8.86-.01-11.54,3.04-4.27,4.87-4.62,6.06-5,12-.43,6.75-.14,12.94,3,19,.21.4.79.66,1,1,.97,1.52,5.03,5.44,7,6,.02.63.08,1.39,0,2-.08.56-.8,1.36-1,2-8.49-7.08-8.32-5.87-11-17l-1-1c-1.12-5.31-.84-8.79-1-14,1.64-1.04.93-3.4,1-5,.01-.33-.04-.67,0-1v-2c1.12-5.16,6.14-9.77,4.25-14.72l-48.74-80.28c-5.89-2.53-6.48-1.66-7.37,3.62-1.58,9.33.29,23-1.15,32.91-.12,2.43,2.46,2,3.02,2.47l2,2-1,1c-2,.03-4-.04-6,0-.16,0-1.24-1.17-3-1-.92-2.23-2.59-1.02-2,1-.9.14-2.39-.24-3,0-2.51,1-4.37,1.5-5.03,4.58-.29,1.25.11,2.26.55,3.39.7,1.81,26.57,24.68,31.55,20.58,1.26-.83.74-2.41.93-3.55.21-1.21.13-3.69,0-5-.09-.95.2-2.22,0-3h2c3.28,9.62,2.7,18.63-1.84,27.66-5.35,10.64-18.7,15.72-30,16.49l-16.3,41.7c-3.73-1.09-22.87,2.81-23.85-.38l19.97-47.05c.16-3.8-5.99-8.96-7.85-13.04-9.1-19.93.72-39.99,20.87-47.14l2.01-39.24h-4.26s-49.24,50.04-49.24,50.04c4.73,20.75-7.38,43.96-30.17,44.88-6.07.24-18.65-5.49-21.29-4.43-1.69.68-26.06,23.07-26.8,24.74-1.15,2.56,0,11.01-2.23,16.78-2.04-.29-2.3-.04-2,2-3.88,5.71-6.63,8.89-14,10h-5c-11.29-1.36-17.09-6.82-18-18-.18-2.18.87-5.37-1-7,.85-3.2,3.37-6.05,2.81-9.22-1.19-6.71-21.36-28.47-24.54-36.81-4.1,2.47-16.03-1.74-18.06-.78-1.42.67-21.12,21.37-21.68,22.84-1.23,3.2.06,6.31-.53,8.98-2.12-.25-2.25-.12-2,2-6.56,13.57-10.36,5.59-19.06,10.44-.9.5-11.85,12.96-12.18,13.82-2.92,7.56-.39,18.41-16,14.49-9.12-2.29-5.73-10.78-7.16-14.75-.88-2.43-10.1-22.55-11.3-23.02-.74-.29-3.33-.18-4.08.26-1.03.6-12.9,17.11-14.23,19.25-2.23,3.59-.57,9.5-6.24,11.75-8.79,3.48-15.34-3.67-12.3-12.3,1.3-3.69,3.11-2.16,4.56-2.94l8.43,4.95c2.8-.8.92-5.33-.43-5.95.76-6.21,12.41-15.71,13.51-20.07,2.19-8.7-5.41-12.27,8.49-16.93,4.39,2.19,6.61,12.06,13,9,.3,14.08.92,17.54,9,30,3.03,4.67,2.8,6.65,10.43,7.95l1.57-2.39-3-6.55c.75-.38,10.86-11.9,11.05-12.72,1-4.26-5.25-9.07,1.1-17.63,2.48-3.35,4.48-3.3,7.85-4.64-1.54,8.52,8,8.03,13.55,11.01,2.38.49,1.11-1.22,1.45-2.01,1.15-2.68,1.59-3.15,0-6l19.57-24.09c.8-.93-.57-1.79-.57-1.91.18-14.88-6.94-22.01,12-29,2.09.27,2.26.09,2-2,1.96.16,4.07-.23,6,0l-5.89,4.68,1.32,4.4,16.11,6.94,3.46-5.02c4.86,10.22.68,12.33,2.76,19.73,2.68,9.56,20.4,26.39,24.24,36.27.19.49-.18,1.47,0,2s-.16,1.43,0,2c.09.31-.08.68,0,1-12.31,6.82,26.78,21.45,24.06,8.65-.22-1.02-2.02-.55-2.06-.65-.73-1.82-.32-2.78-2-5l25.05-24.45,1-3.04c-.13-1.85-2.01-2.36-2.06-2.52-4.72-17.61-6.39-36.82,14-45,2.83-1.14,6.45-1.18,9-3,.61-.11,1.36.07,2,0,.06.65-.09,1.35,0,2,.05.35-.08.72,0,1-2.76.44-4.13.75-6,3s-3.39,3.79-1.4,7.12c7.29.99,29.97,14.96,35.4,12.38,1.45-.69,1.73-2.09,1.99-3.5.13-.69.12-2.3,0-3,1.47-1.11.18-1.44,0-2-1.21-3.67-2.02-5.4-5-8-1.85-1.62-2.95-1.99-5-3v-4l48.53-48.05c.98-2.66-2.86-11.24-3.53-14.95,1.73-1.71,1.35-2.31-1-2-.36-3.63.21-10.41,1-14,2.12.24,2.24.12,2-2v-1c-.25,1.75-.58,13.05,2,11,.09,1.27-.23,2.9,0,4,1.05,5.01,5.23,10.67,10.97,8.49s17.56-32.02,22.89-38.24c.34-4.05-4.64-5.99-7.85-6.25-.94-.08-5.03.66-6,1v-3c.71-.24,2.12.19,3,0l2-1c1-.02,2,.04,3,0,3.89-.14,9.27-.41,13,0,20.54,2.28,33.03,21.89,31.06,41.56-.56,5.54-6.33,15-5.64,18.44l50.1,83c10.36,1.27,20.44-.42,30.16,4.75l62.21-59.39c-19.03-29.47-15.66-65.35,12.12-87.35v3c-3.44,2.05-2.6,3.24-4,5-2.69,3.39-4.08,6.23-6,10-2.52-.63-5.49,6.83-4,9-.9,2.31-1.33,4.64-2,7-.08.29-.75-2.07-1,2-.22,3.62-.28,8.41,0,12,.76,9.88.57,7.17,5,14,.77,1.19,2.09,2,3,3,.68.74.12,3.96,1.72,5.03,2.05,1.37,9.39,1.46,11.85.04,2.85-1.65,30.03-50.7,32.95-57.05,5.3-11.52,5.07-17.66-9.52-19.02-7.17-.67-12.63-.05-19,3-.12-5.57,3.13-.93,3-5,1.55-.77,3.37-1.36,5-2h1c.29-.11.7.1,1,0,2.12.24,2.24.12,2-2h2c1.61,1.8,2.35,1.29,2-1,.89-.18,2.05.13,3,0,3.65-.5,1.8-.99,2-1,1.98-.14,4.01.06,6,0Z"/>
      <path class="st1" d="M272,563c-8.04-21.52,11.56-41.65,32.83-41.17l22.17-57.83h24l-25.86,63.75c17.59,22.57,13.75,47.78-12.97,59.91l-2.9,36.07,2.37,3.2,51.89-50.98c-5.45-24.42,9.97-46.24,35.87-43.84,4.58.43,12.66,4.74,16.35,3.6,1.71-.53,24.79-23.24,25.74-24.74,2.58-4.06-.04-6.53.75-11.22,4.21-24.93,41.82-22.54,42.84,2.74.23,5.66-4.14,12.1-3.59,14.45.5,2.14,23.13,35.24,25.22,35.93,2.43.8,5.22-1.11,7.75-.9,3.03.26,6.87,2.53,9.5,1.56,4.41-1.63,17.37-20.14,23.05-22.53.56-.24,2.1.13,3,0,.69,3.26,3.66,3.91,3,8-2.56.28-5.06.57-7.06,2.45l-5.94,11.55c-.32.35-.68.65-1,1h-3s0,3,0,3c-8.25,9.76-2.62,6.1-2.93,16.51-.3,9.87-7.79,16.68-17.07,18.49l-4.99-1.01c17.74-4.8-4.57-12.36-10.63-14.95l-5.38,3.96c-3.48-9.07.6-12.43-.73-17.69-1.63-6.43-21.45-30.03-26.27-38.31-.3-.51.3-2.45,0-3,10.72-4.51-20.13-16.37-21.84-12.35-3.12,7.34,2.64,5.95,2.84,6.35.46.89,1.71,6.77,2,7l-25.49,26.07c2.83,13.51,5.07,25.75-4.63,37.25-2.63,3.12-4.66,3.11-6.88,4.68-2.03-.3-2.3-.03-2,2-.68.38-1.29.67-2,1-.92-2.23-2.59-1.02-2,1-1.02.38-1.93.73-3,1-5.06-3.38,8.23-4.02,4.47-12.98-1.28-3.05-33.74-16.71-38.47-14.51-2.21,1.03-5.68,10.31-1,10.49-.1,1.04-.18,3.07,0,4,.73,3.66,1.45,1.38,2,2,1.51,1.71,5.11,5.04,7,6-.86,2.03-2.67,4.18-4,6-2.7,3.7-4.23,4.87-7,8-11.33-1.04-10.9,8.32-14,14-6.32,5.3-11.46,7.66-17.03,11.4-5.89,3.95-4.89,5.44-4.97,10.6-.51.26-2.15-.19-3,0-.63,1.52.88,2.48,1,2.99,1.14,5.22,3.11,9.61,4,15-1.75,1.68-1.33,2.32,1,2,.62,6.44-.39,9.27-2,15-.46-.85-1.84-2.23-2-3-.06-.31.04-.67,0-1-.11-.97.05-2.01,0-3-.09-1.66.06-3.34,0-5l.99-1.99c-.01-.1-1.97.09-1.99,0-.22-.82.27-2.5,0-3-5.79-10.68-9.97-6.08-15.35,1.15-2.21,2.98-17.56,29.63-17.67,31.43-.32,4.86,5.68,5.91,9.02,5.42,1.28-.19,2.7.13,4,0-.32.36-.35,2.33-1,3-20.69,5.71-42.02-2.78-48.5-24-4.49-14.69.4-22.2,4.09-35.99l-51.59-83.55-32.58-1.53-59.26,59.34c.45,1.33,1.24,2.49,1.85,3.73-.32,1.88.1,2.35,2,2,1.17,2.34,1.32,4.46,2,6-.26,2.1-.11,2.26,2,2,.27.68-.26,2.26,0,3-.24,2.12-.12,2.24,2,2,.19.86-.14,2.06,0,3-1.77,1.65-1.31,2.34,1,2,.04.66-.01,1.34,0,2,.03,1.4-3.47,7.9,1,7,.06,3.49.3,7.6,0,11-2.69-1.25-3.09,6.58-2,9-.35,1.56-.57,3.66-1,5-2.65-.59-2.43,1.98-3,4-.16.57.18,1.49,0,2-2.83-.56-3.19,3.77-4,6-2.52,3.92-5.16,8.17-9,11,1.29-1.94,4.98-9.52,6-12,.12-.28-.12-.72,0-1,.23-.56.67-1.1,1-2,.21-.58.76-1.15,1-2,.02-.07.83-.32,1-1,.26-1.07-.16-2.76,0-4,3.43.69,1.43-1.92,2-4,.21-.78-.14-2.07,0-3,.01-.1,1.98.09,1.99,0,.14-1.36-1-1.88-.99-1.99.23-2.72.14-6.24,0-9-.34-6.58-.73-15.06-6-20.5-13-13.44-20.6,5.18-26.82,15.18-5.59,8.98-20.05,32.07-23.22,40.78-2.5,6.86-1.89,12.26,5.47,15.61,5.4,2.45,17.53,1.16,22.57-.06-8.36,7.99-25.15,8.85-36.36,7.86-82.14-7.25-75.27-143.04,25.37-124.37,4.31.8,8.67,5.56,12.93,1.97l64.13-58.91c-1.53-19.06.55-37.88,19.23-47.74,18.73-9.9,33.37-4.6,46.7,9.2l-2,1c-1.16-.84-2.62-.97-4-1v-1l-.63-2.1c-1.7-1.32-3,.1-3.37.1-1.17,0-3.07-.23-4,0-1.45.36-4.82.85-5.54,1.96l-.46,3.45c5.3,6.55,9.97,39.32,18.36,39.58,7.12.21,7.39-5.92,8.65-6.99,1.37-1.16,1.88,1.03,1.98,1l-4.25,14.69,51.78,82.31c6.36-.06,4.71-3.8,5.46-8,1.31-7.29.88-12.8,1-20,.04-2.33-.08-4.68,0-7,.07-2.06,1.63-4.95,0-8,1.2.33,4.4.02,6,0,7.38-.07,11.64-4.62,7.56-12.06-8.31-2.05-23.31-22.07-31.37-17.75-1.01,2.32-3.09,7.64-3.18,9.81Z"/>
      <path class="st1" d="M547,529c.85-5.45.59-12.4,6.02-15.48.34-.19,6.32-2.42,6.69-2.53,2.64-.78,4.5,2.09,8.21-.55.78-.56,12.28-13.57,12.6-14.47,1.44-3.99-1.67-13.55,8.2-15.77,14.53-3.26,12.14,9.46,14.73,15.84,3.17,7.8,7.94,15.6,12.18,22.89,2.13.64,15.66-16.45,17.41-19.39,2.06-3.46.29-10.21,5.98-11.96,12.05-3.71,18.87,11.85,6.97,15.41-.43-4.33-5.55-5.01-8.99-4.99-1.16,2.41,1.92,5.04,1.99,5.99.33,4.39-12.49,15.66-13.6,19.98-.81,3.14.93,5.06.64,7.48-1.96,16.73-23.56,11.5-23.11-1.95.08-2.49,2.12-4.24,1.9-6.76-.21-2.37-8.92-17.59-10.83-20.75-.3-.5.62-2.59-.99-4.49-.48-.57-6.79-3.55-7.57-3.51-5.61.33.05,7.83.56,8-.92,4.67-9.92,10.97-10.82,14.75-2.23,9.32,6.78,12.51-7.18,20.25-3.25-6.53-14.24-11.55-21-8Z"/>
      <path class="st2" d="M123,129c-2.41,6.92-10.08,12.58-17.06,8.56-2.87-1.65-13.5-20.52-16.12-24.88-3.69-6.12-22.41-38.12-21.4-42.73,2.16-9.82,20.52-8.03,27.58-6.45,1.92.43,3.42,1.64,3-1.51,8.46,4.12,11.09,5.94,17,13-4.8.02-.58,2.49,0,5-4.81-5.49-12.26-13-20-13-4.26-4.43-9.48-3.43-15-1.99,2.33,8.54,33.21,65.16,37.64,65.86l4.36-1.88Z"/>
      <path class="st2" d="M333,94l-2,2c-2.34-11.01-8.79-18.55-19-22-.4-.14-.77-1.83-1.75-1.99-5.63-.87-6.99.38-5.49,5.72.51,1.8,17.28,31.14,18.74,32.29,2.08,1.64,3.4.55,5.49-.02-1.66,4.64-5.44,8.63-11.09,4.58-6.01-4.31-14.13-29.09-20.72-35.32v-3.52c2.64-5.64,8.11-4.53,12.81-6.74,13.27,3.73,20.21,11.96,23,25Z"/>
      <path class="st2" d="M1112,236c2.68-3.05,7.04-7,11.54-3.04,1.5,1.32,13.16,35.16,13.41,37.63.4,3.96.08,6.29-3.68,8.17l-14.27,1.24c-1.03-.72-1.4-1.5-2-2,.2-.64.92-1.44,1-2,2.35.31,10.06,2.53,10.99-.54-6.41-11.43-8.4-25.91-13.5-37.49-.99-2.24-.66-2.34-3.49-1.97Z"/>
      <path class="st2" d="M216,490l15.06,39.94c4.15.58,4.99-2.78,5.94-5.94,2.53-8.41-1.96-24.92-9-30l2-1c.33.34.69.65,1,1h1c8.76,10.49,11.68,20.43,9,34.3-.27,1.2-1.4.53-2,.7-.11.03-.61-2.16-1.98-1-1.26,1.07-1.53,7.2-8.65,6.99-8.4-.25-13.07-33.03-18.36-39.58l.46-3.45c.72-1.11,4.09-1.61,5.54-1.96Z"/>
      <path class="st2" d="M299,583l5-4.98-27.47-20.06-1.53,1.51c-2.21,9.28,9.61,21.24,18,23.53,1.63,3.05.07,5.94,0,8-1.53-9.2-3.24-5.29-7.36-8.13-6.11-4.21-13.95-12.01-13.64-19.87.09-2.17,2.17-7.49,3.18-9.81,8.07-4.33,23.07,15.7,31.37,17.75,4.08,7.44-.17,11.99-7.56,12.06Z"/>
      <path class="st2" d="M370,578c-4.67-.19-1.21-9.46,1-10.49,4.73-2.2,37.19,11.46,38.47,14.51,3.76,8.95-9.53,9.6-4.47,12.98-4.6,1.16-5.87,2.4-11.48,1.99-7.42-.55-12.08-6.34-18.52-.99,1.33-1.82,3.14-3.97,4-6,5.17,2.64,10.57,4.52,16.49,4,27.64-2.46-16.83-19.07-22.25-21.83l-2.78.8c-.87,1.61-.29,3.38-.46,5.04Z"/>
      <path class="st2" d="M292,185c-5.58,1.26-14.38,10.2-16,16-.91,3.27-3.16,10.09,3.03,8.57,4.93-1.21,19.43-17.2,24.97-20.57.22.33,6.11-1.45,1.57,5.07-10.62,3.45-25.74,29.48-33.56,12.93l-1.01,12c-3.86-11.53,3.11-26.13,12.49-33.01,2.73-2,5.3-1.66,7.51-2.99l1,2Z"/>
      <path class="st3" d="M469,242c-3.34,6.17,3.21,2.01,1.11,8.54-.89,1.26-16.08,7.99-17.86,8.27-11.15,1.77-3.67-9.23.76-12.81,5.62-4.54,8.89-4.36,16-4Z"/>
      <path class="st3" d="M516,175c2.27.17,3.47-.91,3,2-.59-.13-1.37.09-2,0-.31-.68-.68-1.33-1-2Z"/>
      <path class="st3" d="M513,175c-.64,3.22,1.63,1.65,4,2,.47,1.03,2.01,3.99,1.99,4.52-.12,3.49-19.97,11.24-21.99,9.48-.63-.55,1.59-4.89-1.99-4.01,3.23-7.4,10.24-11.28,18-12Z"/>
      <path class="st3" d="M495,580l5.38-3.96c6.06,2.59,28.37,10.15,10.63,14.95l4.99,1.01c-8.4,1.63-17.87-3.85-21-12Z"/>
      <path class="st3" d="M893,246c.2.16,2.43,3.25,3,4,1.68,2.22,1.27,3.18,2,5,1.02,6.19-19.53-3.38-20.42-4.09-2.07-1.66-1.17-2.18-1.58-3.91-.08-.32.09-.69,0-1l5.01-1.5-5.01-.5c-.18-.53.19-1.51,0-2,5.45-.24,12.57.49,17,4Z"/>
      <path class="st3" d="M834,592c-.18-3.39-10.55-3.01-5.51-8.01,1.85-1.83,17.46-8.15,19.44-6.87.46.29-.96,3.87,2.07,2.88-2.48,6.6-8.4,11.37-16,12Z"/>
      <path class="st3" d="M849,186l-3.46,5.02-16.11-6.94-1.32-4.4,5.89-4.68c8.09.95,11.68,4.03,15,11Z"/>
      <path class="st2" d="M920,220c.04.16,1.93.67,2.06,2.52l-1,3.04-25.05,24.45c-.57-.75-2.8-3.84-3-4l27-26Z"/>
      <path class="st2" d="M227,279c-.51-1.56-1.51-1.85-3-2,1.45-.49,2.82-3.83,3-4,5.98-5.54,8.19-6.55,9-16,3.26.8,2.15-6.21,2.04-7.55-.23-2.79-1.06-9.1-2.04-11.45l3-1c5.69,14.35,1.72,33.89-12,42Z"/>
      <path class="st3" d="M449,515c-.41-3.06.92-1.97,2.81-1.32,2.45.84,15.48,4.85,16.06,5.47.48.51-.03,1.55.12,1.85.3.55-.3,2.49,0,3-1.67,2.57-16.27-1.43-17-2-.29-.23-1.54-6.11-2-7Z"/>
      <path class="st3" d="M566,229c1.06,7.3-9.95,6.61-14.47,10-3.87-1.12.55-8.9,2.47-10,.42-.24,8.88-2.05,9.53-2,1.87.15,2.31,1.95,2.47,2Z"/>
      <path class="st2" d="M1034,69v3c-3.59,1.25-.93.53-2,2-12.61,2.62-17.3,13.32-18,25-.08,1.29-.09,2.71,0,4-2.58,2.05-2.25-9.25-2-11,1.63-11.48,11.49-19.41,22-23Z"/>
      <path class="st2" d="M333,675c-3.46,12.36-11.63,20.59-24,24,.65-.67.68-2.64,1-3,.12-.14,2.41-1.61,3-2,3.7-2.42,6.22-2.22,9.98-6.52,4.64-5.32,4.75-9.69,7.02-15.48h1c.16.77,1.54,2.15,2,3Z"/>
      <path class="st2" d="M126,654c-.88-.41-.78-1.24-1-2-1.43-4.92-1.86-12.26-6.46-15.05-2.69.19-10.51,13.63-12.34,16.75-4.92,8.35-23.48,39.85-23.97,47.05-.05.74-.36,1.49-.23,2.25l12.34,1.04c.68-.21,1.11-2.12,1.66-3.03,11.48-1.47,16.76-11.81,24-19-1.02,2.48-4.71,10.06-6,12-5.31,7.99-7.12,8.84-16,11-5.04,1.23-17.17,2.51-22.57.06-7.36-3.34-7.96-8.75-5.47-15.61,3.17-8.7,17.63-31.8,23.22-40.78,6.22-10,13.83-28.62,26.82-15.18,5.27,5.45,5.66,13.92,6,20.5Z"/>
      <path class="st2" d="M814,206c0,.12,1.37.97.57,1.91l-19.57,24.09c-.1-.19-2.81-2.9-3-3l22-23Z"/>
      <path class="st2" d="M368,604c-4.55,5.14-8.73,9.58-14,14-3.03,5.57-16.64,19.23-22,22-.02,1.51-.51,2.5-2,3-.11-.51-1.63-1.48-1-2.99.85-.19,2.48.26,3,0,.08-5.16-.92-6.65,4.97-10.6,5.57-3.73,10.71-6.1,17.03-11.4,3.1-5.68,2.67-15.04,14-14Z"/>
      <path class="st3" d="M792,229c.19.1,2.9,2.81,3,3,1.59,2.85,1.15,3.32,0,6-3.04-1.55-10.99-3.49-13.06-5.51-1.61-1.57,1.94-4.09-1.94-3.49.12-.05-.8-1.88,1.46-2.12.53-.06,10.06,1.88,10.54,2.12Z"/>
      <path class="st3" d="M565,539c-4.37.85-7.71-.47-12,0,.66-4.09-2.31-4.74-3-8,4.74-.67,15.98,1.25,15,8Z"/>
      <path class="st2" d="M1073,565c-1.76,7.04-9.41,16.7-17,18-1.36.23-3.48.02-5,0v-1c3.85-.85,8.74-3.23,11.55-5.95,3.29-3.18,4.48-8.96,5.45-10.05.18-.21,1.58-.87,2-1,.74-.23,2.1.16,3,0Z"/>
      <path class="st2" d="M1109,499l1,2c-3.44,6.71-3.5,13.89-3,21l-3-2c-.5-8.21-1.32-12.48,2.92-20.39.51-.96,2.02-.52,2.08-.61Z"/>
      <path class="st2" d="M965,174v4c-6.19-3.05-13.04-4.69-20-4-.09-.65.06-1.35,0-2,.11-.01-.33-1.96.66-2.01,7.2-.35,12.73,1.72,19.34,4.01Z"/>
      <path class="st2" d="M1030,693c1.53.87.08,1.91,6,3v3c-10.84-2.86-14.28-6.29-20-15l1-1c2.3,3.35,9.48,7.99,13,10Z"/>
      <path class="st3" d="M604,234c1.67-6.55,6.55-7.82,12.54-10.11,1.97-.31,1.35,2.06,1.46,2.11-4.42,2.77-7.59,11.27-14,8Z"/>
      <path class="st3" d="M742,235c-6.39,3.06-8.61-6.81-13-9,.2-.07-.78-2.02,1.29-1.93,4.5.19,11.61,6.14,11.71,10.93Z"/>
      <path class="st2" d="M1055,182c1.45,1.22,1.84,1.88,2,2,8.9,7.14,10.62,5.15,15,18h-2c-1.65-6.48-10.01-12.2-14-17l1-1-2-2Z"/>
      <path class="st3" d="M760,264l3,6.55-1.57,2.39c-7.63-1.3-7.4-3.27-10.43-7.95,2.71.01,6.57.22,9-1Z"/>
      <path class="st2" d="M403,172l-2,3c-7.07-1.8-12.24-1.35-19,1l-2-1c7.79-4.71,14.77-4.97,23-3Z"/>
      <path class="st3" d="M594,502c-2.15-.41-6.29.59-8,0-.51-.18-6.17-7.67-.56-8,.78-.05,7.09,2.94,7.57,3.51,1.61,1.91.69,4,.99,4.49Z"/>
      <path class="st2" d="M1234,695c.23.19-.23,1.79,0,2,.29.27,2.19.17,2-1,3.21,2.21,8.02,3.33,11,5,.25.14.31,2.66,4,3-.14,0-.98,1.05-2.38,1.02-2.49-.05-6.13-4.54-5.62-.02-4.85-2.36-4.31-3.76-6-5h.5l.5-.5-.5-.5-.5,1c-2.41-1.77-2.42-2.51-3-3-.24-.2-1.19-.27-2-1-.18-1.16,1.65-1.29,2-1Z"/>
      <path class="st2" d="M568,537c-.72.4-.59,1.53-3,2,.98-6.75-10.26-8.67-15-8-.9.13-2.44-.24-3,0,.07-.65-.1-1.36,0-2,6.76-3.55,17.75,1.47,21,8Z"/>
      <path class="st2" d="M553,539c-.59,3.63-10.27,11.03-13,14l5.94-11.55c1.99-1.88,4.49-2.17,7.06-2.45Z"/>
      <path class="st3" d="M639,262c.38-.18,6.56-.21,7.34-.02,1.07.26.56,1.97.66,2.02-.82,2.39-8.54,6.44-9.99,4.99-.74-.73,1.66-6.84,1.99-6.99Z"/>
      <path class="st2" d="M1247,61c.13,4.07-3.12-.57-3,5,.01.67,0,1.33,0,2-.62.12-1.48-.16-2,0-1.59.5-3.56.95-3,3-.97.4-2.05.43-3,1-.25.15-.75-.15-1,0v-3c5.23-4.14,5.6-4.81,12-8Z"/>
      <path class="st3" d="M707,263c1.35.61,3.22,5.15.43,5.95l-8.43-4.95c.09-.05-.34-1.91.59-2.07,1.64-.28,2.82,1.49,4.11,1.74,1.15.23,2.99-.81,3.3-.67Z"/>
      <path class="st3" d="M707,499c1,0,2,0,3,0l-3,6c-2.51.44-3.79-.06-6-1-.14-4.18,2.63-5.02,6-5Z"/>
      <path class="st2" d="M595,265c-.37.78.64,2.55-.99,4.49-1.12,1.34-6.29,2.57-7.98,4.08l-2.56-.57c-.53-.94-.55-1.97-.47-3,2.46,2.17,12.85-2,7-5,1.67-.03,3.33.02,5,0Z"/>
      <path class="st2" d="M293,598c-.12,7.2.31,12.71-1,20-1.73-4.81-1.17-11.43-1-16.55.06-1.92-1.02-4.01,2-3.45Z"/>
      <path class="st2" d="M894,520c.13.57-.2,1.72,0,2-5.43.66-10.35,5.18-16,2,.23-.38-.23-1.59,0-2,4.4.07,12.16.23,16-2Z"/>
      <path class="st3" d="M646,503c-1.61.48-5-.09-7,1-.07-.96-3.16-3.58-1.99-5.99,3.45-.02,8.57.66,8.99,4.99Z"/>
      <path class="st3" d="M590,265c5.85,3-4.54,7.17-7,5,.1-1.26,2.49-4.8,3-5,.62-.24,2.94.02,4,0Z"/>
      <path class="st2" d="M1042,68c-.97-3.24,13.97-3.24,13,0-3.73-.41-9.11-.14-13,0Z"/>
      <path class="st2" d="M1282,713h-13c1.68.09,11.38.1,13,0Z"/>
      <path class="st2" d="M584,262c-4.29,1.53-6.68-5.42-8-9,3.64,2.16,5.72,5.62,8,9Z"/>
      <path class="st2" d="M293,156c-3.32,1.14-2.51-8.39-1-11,1.8,3.85.82,7.04,1,11Z"/>
      <path class="st2" d="M133,657c-.37,4.23-1.23,5.59-2,9-1.09-2.42-.69-10.25,2-9Z"/>
      <path class="st2" d="M943,172c-2.55,1.82-6.17,1.86-9,3-.67-4.13,7.6-2.74,9-3Z"/>
      <path class="st2" d="M1279,55c-1.64-.04-6.47-.05-8,0h8Z"/>
      <path class="st2" d="M1248,707c2.38.84,8.65.95,8,4-2.54-.68-8.76-1.38-8-4Z"/>
      <path class="st2" d="M133,646c-4.47.9-.97-5.6-1-7,1.65,2.04.96,4.63,1,7Z"/>
      <path class="st2" d="M862,267c-3.94.65-1.7-4.34-1-7,1.87,1.63.82,4.82,1,7Z"/>
      <path class="st2" d="M127,677c-1.8,5.11-3.06,4.53-4,6,.81-2.23,1.17-6.56,4-6Z"/>
      <path class="st2" d="M292,182l1-6c-.02,2.05,2.88,1.82-1,6Z"/>
      <path class="st2" d="M885,285c-3.47.52-1.86.38-5,0h5Z"/>
      <path class="st2" d="M576,245v-5c.62,3.71.18,2.41,0,5Z"/>
      <path class="st2" d="M1213,667c2.64-.76,2.42,2.76,3,5-2.34.88-2.77-2.96-3-5Z"/>
      <path class="st2" d="M1104,246c-.03-.92-2.88-3.65,1-5-.07,1.6.64,3.96-1,5Z"/>
      <path class="st2" d="M1296,710c-1.52.48-2.67,1.48-5,2-1.01-2.2,3.47-3.55,5-2Z"/>
      <path class="st2" d="M130,671c-.63,1.99-.28,4.59-3,4,.57-2.02.35-4.59,3-4Z"/>
      <path class="st2" d="M539,554c-.98,1.07-2.35,2.24-3,3v-3s3,0,3,0Z"/>
      <path class="st2" d="M1211,657c4.09-.53,1.01,2.29,1,3-1.27-.57-.95-1.88-1-3Z"/>
      <path class="st2" d="M1212,640c.02.78,3.08,3.52-1,3,.04-1.12-.26-2.43,1-3Z"/>
      <path class="st2" d="M1212,662c4.1-.57.98,2.45,1,3-1.22-.57-1.01-1.87-1-3Z"/>
      <path class="st2" d="M1218,622c.05,2.36.67,3.47-2,3,.83-2.03,1.93-2.83,2-3Z"/>
      <path class="st2" d="M1216,675c2.67-.47,2.05.64,2,3-.1-.23-1.19-.57-2-3Z"/>
      <path class="st2" d="M1305,706c-.16.09.2,1.9,0,2h-3s3-2,3-2Z"/>
      <path class="st3" d="M828,175c.26,2.09.09,2.27-2,2,.11-.04-.15-1.96,0-2h2Z"/>
      <path class="st2" d="M125,88l2,2c-2.02.3-2.31.01-2-2Z"/>
      <path class="st2" d="M1138,556c-1.17.11-1.9-.01-2,0h2Z"/>
      <path class="st2" d="M1131,556l-2,2c-.3-1.79.19-2.36,2-2Z"/>
      <path class="st2" d="M1009,109c2.35-.31,2.73.29,1,2-.02-.11-.84-.39-1-2Z"/>
      <path class="st2" d="M1012,93c.24,2.12.12,2.24-2,2,.36-1.63-.95-2.36,2-2Z"/>
      <path class="st2" d="M414,590c-.15.11,1.01.32-2,2-.3-2.03-.03-2.3,2-2Z"/>
      <path class="st2" d="M410,593c-.65.3-1.18.7-2,1-.59-2.02,1.08-3.23,2-1Z"/>
      <path class="st2" d="M123,617c.08.17.42-1.16,2,2-1.9.35-2.32-.12-2-2Z"/>
      <path class="st2" d="M1039,68l-2,1c.1-.02-.09-1.98,0-1.99l1.99.99Z"/>
      <path class="st2" d="M127,625c.08.18.66-1.36,2,2-2.11.26-2.26.1-2-2Z"/>
      <path class="st2" d="M1299,59c.42.18,1.38-.16,2,0v2c-2.1.26-2.25.11-2-2Z"/>
      <path class="st2" d="M132,637c-2.31.34-2.77-.35-1-2,.02.11.91.4,1,2Z"/>
      <path class="st2" d="M1214,635c.25,2.12.12,2.25-2,2,.55-3.58,1.9-1.58,2-2Z"/>
      <path class="st2" d="M1294,57c3.43,1.04,1.81,1.93,2,2-2.12.24-2.24.12-2-2Z"/>
      <path class="st2" d="M1256,57c.24,2.12.12,2.24-2,2,.11-.04-.15-1.95,0-2h2Z"/>
      <path class="st2" d="M1292,57c-1.61,1.8-2.35,1.29-2-1,1.48.28,1.89.97,2,1Z"/>
      <path class="st2" d="M1260,56c.35,2.29-.39,2.8-2,1,.35-.99,1.2-.84,2-1Z"/>
      <path class="st2" d="M1287,56c-1.65,1.77-2.34,1.31-2-1,1.64.12,1.89.99,2,1Z"/>
      <path class="st2" d="M1265,55c-.2.01,1.65.5-2,1l2-1Z"/>
      <path class="st2" d="M901,273c-1.36,3.53-1.72,1.59-2,2-.3-2.04-.04-2.29,2-2Z"/>
      <path class="st2" d="M335,660c-2.33.32-2.75-.32-1-2,.02.11.84.39,1,2Z"/>
      <path class="st2" d="M574,236c.09.14,1.44-.13,2,0v2c-1.9.35-2.32-.11-2-2Z"/>
      <path class="st2" d="M271,222c2.12-.24,2.24-.12,2,2-.05-.12-1.95.16-2,0v-2Z"/>
      <path class="st2" d="M129,630c.18.51,1.22-1.64,2,2-2.12.24-2.24.12-2-2Z"/>
      <path class="st2" d="M799,245c-.82,3.75-1.68,1.34-2,2-.25-2.12-.12-2.25,2-2Z"/>
      <path class="st2" d="M1105,526c-.02-.1-1.97.1-1.99,0l.99-1.99,1,2Z"/>
      <path class="st2" d="M696,500c3.15-.67,1.59,1.53,2,2-2.56.31-1.64-.71-2-2Z"/>
      <path class="st2" d="M710,509c1.9-.35,2.32.11,2,2-.11-.15-.6-.19-2-2Z"/>
      <path class="st2" d="M1070,540c3.07-.51,1.58.9,2,2-3.09.43-1.55-.61-2-2Z"/>
      <path class="st2" d="M1258,711c1.62-1.8,2.35-1.3,2,1-1.55-.23-1.89-.97-2-1Z"/>
      <path class="st2" d="M1263,712c1.65-1.77,2.34-1.31,2,1-1.64-.13-1.89-.99-2-1Z"/>
      <path class="st2" d="M1288,712c-.11.01-.37.92-2,1-.34-2.31.35-2.77,2-1Z"/>
      <path class="st2" d="M120,80c-.31-.62-.99-1.16-1-2,.42.64,1,1.14,1,2Z"/>
      <path class="st2" d="M1230,694c-.49-.5-1.91-.79-3-2l3,2Z"/>
      <path class="st2" d="M1105,240c.07-.65-.13-1.42,0-2v2Z"/>
      <path class="st1" d="M231,494c.15.16.86-.17,1,0h-1Z"/>
      <path class="st2" d="M1106,261c-.05-.21-.91-.6-1-1l1,1Z"/>
      <path class="st2" d="M1219,680c-.06-.13-.71-.37-1-1l1,1Z"/>
      <path class="st2" d="M1252,59c.29-.11.71.11,1,0h-1Z"/>
      <path class="st2" d="M1223,686c-.26-.36-.76-.63-1-1l1,1Z"/>
      <path class="st2" d="M1226,690c-.3-.36-.7-.64-1-1l1,1Z"/>
      <path class="st2" d="M586,265l-1-1c.04.06,1.17-.12,1,1Z"/>
      <path class="st2" d="M1218,621c.27-.64.95-.88,1-1l-1,1Z"/>
      <path class="st2" d="M406,174l-1-1c.35.11.69.88,1,1Z"/>
      <path class="st2" d="M238,235l-1-1c.15.32.86.63,1,1Z"/>
      <path class="st2" d="M1114,492c.33-.33.65-.68,1-1l-1,1Z"/>
      <path class="st2" d="M224,281c.32-.31.61-.78,1-1-.31.36-.7.64-1,1Z"/>
      <path class="st2" d="M1226,635c4.37-4.92,4.19-8.84,13.74-4.73l35.81,63.76c1.98,10.78-11.49,12.18-19.11,11.98-1.92-.05-4.01,1.01-3.45-2,2.58-.11,10.15.97,10.93-1.58-1.85-11.55-9.82-19.32-14.93-28.92-5.83-10.95-11.8-26.31-18.78-36.21-1.3-1.84-1.6-2.62-4.22-2.29Z"/>
      <path class="st3" d="M1253,704c-.66.03-1.33-.01-2,0-3.69-.34-3.75-2.86-4-3l2.52-2.02-26.65-46.84-2.86-.15c-.01,4.66,0,9.35,0,14-3.03.56-1.93-1.53-2-3.45-.5-12.94-.55-17.92,8-27.55,2.62-.34,2.92.44,4.22,2.29,6.98,9.91,12.96,25.27,18.78,36.21,5.11,9.6,13.08,17.38,14.93,28.92-.78,2.55-8.36,1.47-10.93,1.58Z"/>
      <path class="st2" d="M1107,524l3.97,6.53,2.97.42,14.92-37.64c.1-4.62-8.91-1.23-10.86-.32,2.17-6.12,17.22-5.18,18.83.74,1.05,3.88-10.76,38.23-14.26,41.32-9.23,8.15-14.58-4.18-15.56-11.06Z"/>
      <path class="st3" d="M1118,493c1.95-.92,10.96-4.3,10.86.32l-14.92,37.64-2.97-.42-3.97-6.53c-.09-.64.05-1.35,0-2-.5-7.11-.44-14.29,3-21,1.43-2.79,5.32-6.74,8-8Z"/>
      <path class="st2" d="M1038,696c2.95-1.33,2.23-3.26,1.24-5.74s-16.57-30.83-17.77-32.23c-1.35-1.59-2.28-2.26-4.47-2.03,3.1-3.48,4.77-6.26,10.09-2.58,1.87,1.29,16.74,27.79,18.43,31.57,4.12,9.24,2.1,11.33-7.51,11.01Z"/>
      <path class="st3" d="M1017,656c2.19-.23,3.11.43,4.47,2.03,1.19,1.4,16.78,29.77,17.77,32.23s1.72,4.4-1.24,5.74c-.64-.02-1.41.11-2,0-5.92-1.09-4.47-2.13-6-3,2.94.28,2.35-.51,1.01-2.51-5.28-7.81-8.08-15.96-12.92-23.08-1.25-1.84-1.24-2.86-4.09-2.41v-4c.08-.28,2.74-4.71,3-5Z"/>
      <path class="st3" d="M1070,556c.52,2.52-.36,6.27,0,9-.42.13-1.82.79-2,1,.27-3.18-.6-2.04-1.97-.47-4.15,4.79-12.72,10.98-14.79,13.73-.55.73-.28,1.85-.24,2.74v1c-5.65-.06-6.51.84-11-3-.3-2.55.89-3.45,2.51-5,4.2-3.99,17.6-14.62,22.44-17.57,1.76-1.07,2.74-1.92,5.05-1.44Z"/>
      <path class="st3" d="M975,573c1.47,7.08-2.05,7.23-3,9,.18-3.59-.57-1.39-2.09-.59-6.54,3.47-13.32,8.74-20.92,8.59l1.49,1.99,6.52,1c-5.54,1.05-11.15,1.85-16-2-.55-2.97.14-2.41,1.92-3.55,8.94-5.7,22.17-10.21,32.08-14.45Z"/>
      <path class="st2" d="M1070,556c-2.31-.48-3.29.37-5.05,1.44-4.84,2.94-18.24,13.58-22.44,17.57-1.62,1.54-2.81,2.44-2.51,5-5.29-4.52-3.52-5.21,1.53-9.97,3.77-3.56,26.56-23.34,28.47-14.03Z"/>
      <path class="st2" d="M975,573c-9.9,4.24-23.14,8.75-32.08,14.45-1.78,1.14-2.47.58-1.92,3.55-2.34-1.86-4.67-4.6-1.4-6.9,6.44-1.99,28.56-15.86,33.75-13.95,1.68.62,1.37,1.52,1.65,2.86Z"/>
      <path class="st3" d="M899,510c.04,2.77-3.07,8.88-5,10-3.84,2.23-11.6,2.07-16,2,.14-.24-.13-.71,0-1,.33-.77-.7-2,.6-3.1,1.36-1.16,17.26-7.26,20.4-7.9Z"/>
      <path class="st2" d="M878,521c-11.38-4.35,19.79-14.99,21-14,.04,1-.02,2,0,3-3.13.64-19.04,6.74-20.4,7.9s-.27,2.33-.6,3.1Z"/>
      <path class="st3" d="M1226,681c-4.9-.5-4.44-6.81-5-9,2.84,2.12,3.6,6.05,5,9Z"/>
      <path class="st2" d="M1014,665c0,2.58-.24,5.5,0,8-2.16-3.59-1.12-8.26,0-12v4Z"/>
      <path class="st2" d="M707,499c-.45-2.67.63-2.08,2.99-1.99v1.99c-.99,0-1.99,0-2.99,0Z"/>
      <path class="st3" d="M963,590c-.17.09,1.47.83-2,2-.25-2.11-.11-2.26,2-2Z"/>
      <path class="st3" d="M1221,670c-.03-.21-.82,2.1-1-2l1,2Z"/>
      <path class="st2" d="M1016,680c-.06-.11-.74-.3-1-1l1,1Z"/>
      <path class="st2" d="M1232,692c-.31-.31-.82-.62-1-1,.36.3.64.7,1,1Z"/>
      <path class="st2" d="M1015,675c-.01-.07-.93-.45-1-1l1,1Z"/>
      <path class="st3" d="M96,67c4.22,4.39,13.76,18.78,17.05,24.45s4.66,18.72,12.95,20.55c-.22,3.57-1.9,12.88-3,16-.1.3.1.7,0,1l-4.36,1.88c-4.43-.7-35.31-57.32-37.64-65.86,5.52-1.44,10.74-2.44,15,1.99Z"/>
      <path class="st3" d="M401,175c6.06,1.54,5.02,2.19,7,6,.04,2.4-1.32,2.61-3,3.5-3.54,1.86-30.48,12.83-32.47,12.54-1.81-.27-2.52-1.84-3.53-3.04-.15-8.05,5.37-15.35,13-18,6.76-2.35,11.93-2.8,19-1Z"/>
      <path class="st3" d="M234,235c.57.62,1.69,2.26,2,3,.98,2.35,1.81,8.66,2.04,11.45.11,1.34,1.22,8.35-2.04,7.55.17-1.93,1.2-10.08-1.99-9,.94,8.87-6.19,14.76-8.55,21.97-.63,1.92-1.42,3.49,1.54,3.04-.18.17-1.55,3.51-3,4-3-.31-7.4.59-10,0,2.11-7.21,10.73-36.32,14.95-40.55,1.53-1.54,3.01-1.65,5.05-1.45Z"/>
      <path class="st3" d="M329,110c-2.09.58-3.42,1.66-5.49.02-1.47-1.16-18.24-30.5-18.74-32.29-1.51-5.34-.14-6.6,5.49-5.72.98.15,1.35,1.85,1.75,1.99,1.84,4.44,5.74,6.86,8.44,11.06s5.17,14.93,10.56,15.94c.13,1.26.04,2.72,0,4-1.53.96-1.68,2.41-2,4-.07.34.1.73,0,1Z"/>
      <path class="st3" d="M302,186c3.27,2.31,1.1,1.67,2,3-5.54,3.37-20.04,19.36-24.97,20.57-6.19,1.52-3.94-5.3-3.03-8.57,1.81,1.52,2.29.12,3.5-.96,5.2-4.6,12.77-10.23,16.5-15.04,2.08,0,4.04.36,6,1Z"/>
      <path class="st2" d="M234,235c-2.04-.2-3.52-.09-5.05,1.45-4.22,4.24-12.84,33.34-14.95,40.55-3.3-.74-4.2-1.86-3.99-5.38.12-2,10.34-28.92,11.95-32.16,2.97-5.97,5.54-11.54,12.04-4.46Z"/>
      <path class="st2" d="M408,181c.19.36,5.38,1.62,0,6.49-1.24,1.12-29.1,13.06-30.75,13.32-5.99.93-8.15-1.95-8.24-6.81,1.01,1.2,1.72,2.77,3.53,3.04,1.99.29,28.93-10.67,32.47-12.54,1.68-.88,3.05-1.1,3-3.5Z"/>
      <path class="st2" d="M125,101c4.82-1.79,3.21,12.18,2.98,14.48-.25,2.52-1.64,12.45-4.98,12.52,1.1-3.12,2.78-12.43,3-16,.27-4.33-.48-7.02-1-11Z"/>
      <path class="st2" d="M296,185c.41-.53-.97-2.64,1.41-1.92,4.38-.36,4.34,2.75,4.59,2.92-1.96-.64-3.92-1-6-1Z"/>
      <path class="st2" d="M331,105c-.04,1.17,1.91,4.4-2,4,.32-1.59.47-3.04,2-4Z"/>
      <path class="st2" d="M120,86c-2.67.47-2.05-.64-2-3,1.18,1.49,1.23,1.84,2,3Z"/>
      <path class="st2" d="M120,87c.1.17,1.89-.21,2,0v2c-2.12.24-2.24.12-2-2Z"/>
      <path class="st2" d="M123,93v-1c.42,1.24-.01.95,0,1Z"/>
      <path class="st3" d="M1263,63c4.89,8.07-6.52,20.14-10.16,27.34-5.65,11.16-14.53,33.14-22.04,41.96-1.67,1.96-2.27,2-4.8,1.7-.91-1-2.23-1.81-3-3-1.4-3.99-2.84-7.92-4-12l30.99-50.52c.74-3.02-4.92-.7-5.99-.48,0-.67.01-1.33,0-2,6.37-3.05,11.83-3.67,19-3Z"/>
      <path class="st2" d="M1263,63c14.59,1.36,14.81,7.5,9.52,19.02-2.92,6.35-30.1,55.4-32.95,57.05-2.46,1.42-9.8,1.33-11.85-.04-1.6-1.07-1.04-4.29-1.72-5.03,2.53.3,3.13.26,4.8-1.7,7.51-8.82,16.39-30.8,22.04-41.96,3.64-7.19,15.05-19.26,10.16-27.34Z"/>
      <path class="st2" d="M1014,107l5.99,4c3.96-8.24,8.12-16.95,12.64-24.88,2.64-4.64,9.67-9.63,7.37-15.13,3.22.26,8.2,2.19,7.85,6.25-5.32,6.22-17.11,36.04-22.89,38.24s-9.92-3.48-10.97-8.49Z"/>
      <path class="st3" d="M1112,236c2.83-.36,2.51-.26,3.49,1.97,5.1,11.58,7.09,26.06,13.5,37.49-.93,3.07-8.63.85-10.99.54.08-.61.02-1.37,0-2-.32-9.19-7.6-18.23-7.01-28l-3.99,2c.38-5.94.73-7.13,5-12Z"/>
      <path class="st3" d="M1040,71c2.3,5.49-4.73,10.48-7.37,15.13-4.51,7.93-8.67,16.64-12.64,24.88l-5.99-4c-.23-1.1.09-2.73,0-4s-.08-2.71,0-4c3.11.58,2.82-.89,4.05-2.45,4.5-5.71,8.83-15.48,13.95-22.55,1.07-1.47-1.59-.75,2-2,.97-.34,5.06-1.08,6-1Z"/>
      <path class="st2" d="M1042,185c-.31,4.35,6.69,9.55,9.99,12.51,4.83,4.33,12.01,10.62,18.01,12.49-.2,1.14.32,2.71-.93,3.55-4.97,4.1-30.85-18.76-31.55-20.58-.44-1.13-.84-2.15-.55-3.39.66-3.08,2.52-3.58,5.03-4.58Z"/>
      <path class="st3" d="M945,175c1.37,4.69,5.65,2.9,9.68,4.82,5.7,2.71,11.49,5.79,16.84,9.17l1.38-1.38-2.9-6.61c2.98,2.6,3.79,4.33,5,8-2.65,1.11-.02,1.9,0,2,.12.7.13,2.31,0,3-5.99.73-15.72-4.12-21.68-6.82-4.6-2.08-12.41-4.33-14.32-9.18,1.87-2.25,3.24-2.56,6-3Z"/>
      <path class="st3" d="M1050,185l-1.01,2.5c6.53,5.74,13.07,13.64,21.01,17.5.13,1.31.21,3.79,0,5-6-1.87-13.18-8.16-18.01-12.49-3.3-2.96-10.3-8.16-9.99-12.51.61-.24,2.1.14,3,0s1.74-.97,2-1c1.76-.17,2.84,1,3,1Z"/>
      <path class="st2" d="M975,194c-.26,1.41-.54,2.81-1.99,3.5-5.44,2.58-28.11-11.39-35.4-12.38-1.99-3.33-.44-4.91,1.4-7.12,1.9,4.85,9.72,7.1,14.32,9.18,5.96,2.7,15.69,7.55,21.68,6.82Z"/>
      <path class="st2" d="M876,247c.41,1.72-.49,2.25,1.58,3.91.89.71,21.43,10.28,20.42,4.09.04.1,1.85-.38,2.06.65,2.71,12.81-36.38-1.83-24.06-8.65Z"/>
      <path class="st2" d="M780,229c3.88-.6.32,1.92,1.94,3.49,2.08,2.02,10.02,3.96,13.06,5.51-.34.79.92,2.5-1.45,2.01-5.55-2.98-15.09-2.49-13.55-11.01Z"/>
      <path class="st2" d="M1219,119c1.16,4.08,2.6,8.01,4,12-4.43-6.83-4.24-4.12-5-14,.88.42.78,1.24,1,2Z"/>
      <path class="st3" d="M1225,87c-1.17,2.3-3.06,6.57-4,9-1.49-2.17,1.48-9.63,4-9Z"/>
      <path class="st3" d="M1236,72c-.29,2.6-2.43,4.72-5,5,1.4-1.76.56-2.95,4-5,.25-.15.75.15,1,0Z"/>
      <path class="st2" d="M876,244l5.01.5-5.01,1.5c-.16-.57.18-1.49,0-2Z"/>
      <path class="st2" d="M1219,103l-1,2c.25-4.07.92-1.71,1-2Z"/>
      <path class="st2" d="M975,191c-.02-.1-2.65-.89,0-2,.18.56,1.47.89,0,2Z"/>
      <path class="st2" d="M1047,184c-.26.03-1.14.87-2,1-.59-2.02,1.08-3.23,2-1Z"/>
      <path class="st2" d="M1111,268c-.21-.34-.79-.6-1-1l1,1Z"/>
      <path class="st3" d="M379,590c-1.89-.96-5.49-4.29-7-6,.25-2.12.12-2.25-2-2-.18-.93-.1-2.96,0-4,.16-1.66-.41-3.43.46-5.04l2.78-.8c5.42,2.76,49.89,19.37,22.25,21.83-5.93.53-11.32-1.36-16.49-4Z"/>
      <path class="st2" d="M330,658l-4.83-.87c-5.8,12.49-17.83,25.37-19.17,38.87-3.34.48-9.34-.56-9.02-5.42.12-1.8,15.46-28.45,17.67-31.43,5.38-7.23,9.56-11.83,15.35-1.15Z"/>
      <path class="st3" d="M330,658c.27.5-.22,2.18,0,3l1,2c.06,1.66-.09,3.34,0,5-2.36-.24-3.02.4-4.41,2.09-4.65,5.67-8.39,17.62-13.59,23.91-.59.39-2.88,1.86-3,2-1.3.13-2.72-.19-4,0,1.34-13.5,13.37-26.38,19.17-38.87l4.83.87Z"/>
      <path class="st3" d="M293,583c-8.4-2.3-20.21-14.25-18-23.53l1.53-1.51,27.47,20.06-5,4.98c-1.6.02-4.8.33-6,0Z"/>
      <path class="st3" d="M220,490l4,2v1l-1.98.98c7.27,6.98,8.31,20.36,12,29.52,1.08,2.68.29.72,2.98.5-.95,3.16-1.79,6.52-5.94,5.94l-15.06-39.94c.93-.23,2.83,0,4,0Z"/>
      <path class="st2" d="M468,521c-.16-.29.36-1.33-.12-1.85-.58-.62-13.61-4.64-16.06-5.47-1.89-.65-3.22-1.74-2.81,1.32-.21-.4-5.96.99-2.84-6.35,1.71-4.03,32.57,7.84,21.84,12.35Z"/>
      <path class="st2" d="M220,490c.38,0,1.67-1.41,3.37-.1l.63,2.1-4-2Z"/>
      <path class="st2" d="M125,668c-.57,2.08,1.43,4.69-2,4,.3-2.42-1.17-4.63,2-4Z"/>
      <path class="st2" d="M370,582c2.12-.25,2.25-.12,2,2-.55-.62-1.27,1.66-2-2Z"/>
      <path class="st2" d="M330,661c.03.1,1.98-.09,1.99,0l-.99,1.99-1-2Z"/>
      <path class="st2" d="M126,663c0,.11,1.13.63.99,1.99-.01.1-1.98-.09-1.99,0l1-2Z"/>
      <path class="st2" d="M120,681l1-2c-.33.9-.77,1.44-1,2Z"/>
      <path class="st2" d="M122,677l1-1c-.17.68-.98.93-1,1Z"/>
      <path class="st3" d="M331,672h-1c.15-.38.68-.71,1-1,.04.33-.06.69,0,1Z"/>
      <path class="st3" d="M96,701c-.55.91-.98,2.82-1.66,3.03l-12.34-1.04c-.13-.76.18-1.51.23-2.25.49-7.19,19.05-38.7,23.97-47.05,1.83-3.11,9.65-16.56,12.34-16.75,4.6,2.79,5.02,10.13,6.46,15.05-3.6-.69-6.69,6.58-8.16,9.34-7.02,13.13-13.11,26.88-20.84,39.66Z"/>
      <polygon class="st1" points="1237 700 1237.5 699 1238 699.5 1237.5 700 1237 700"/>
      <path class="st3" d="M1239,71c-.56-2.05,1.41-2.5,3-3,.08,2.88-1.34,2.32-3,3Z"/>
    </g>
  </g>
  <g id="Text">
    <text class="st0" transform="translate(150.72 438.66)"><tspan x="0" y="0">All Tech’d Out</tspan></text>
  </g>
</svg>